<svg xmlns="http://www.w3.org/2000/svg" width="1024" height="1024" viewBox="0 0 1024 1024" role="img" aria-labelledby="title desc">
  <title id="title">FidoKeeper</title>
  <desc id="desc">深绿色圆角方形底，米白色盾牌内以负空间呈现钥匙，象征安全密钥的守护与管理。</desc>
  <rect width="1024" height="1024" rx="224" fill="#245C4F"/>
  <path fill="#F5F4EA" fill-rule="evenodd" d="M512 170 C529 170 541 180 560 191 C638 236 709 260 773 275 C794 280 808 299 808 321 C808 578 753 739 535 852 C520 860 504 860 489 852 C271 739 216 578 216 321 C216 299 230 280 251 275 C315 260 386 236 464 191 C483 180 495 170 512 170 Z M512 304 C443.5 304 388 359.5 388 428 C388 481 421.3 526.2 468 544 L468 718 C468 742.3 487.7 762 512 762 C532.1 762 549.1 748.5 554.3 730 L598 730 C611.3 730 622 719.3 622 706 L622 692 C622 678.7 611.3 668 598 668 L556 668 L556 630 L598 630 C611.3 630 622 619.3 622 606 L622 592 C622 578.7 611.3 568 598 568 L556 568 L556 544 C602.7 526.2 636 481 636 428 C636 359.5 580.5 304 512 304 Z"/>
</svg>
